<svg width="71" height="48" xmlns="http://www.w3.org/2000/svg"><g fill="none"><rect fill="#FFCE54" x=".3" y=".5" width="70" height="47" rx="6.4"/><path fill="#57A863" d="M5.3 42.5v-37h8v37z"/><path fill="#FF8416" d="M13.4 42.5v-37h8v37z"/><path fill="#ED5565" d="M26.5 42.5v-37h38.8v37z"/><path d="M59.5 16.7a.7.7 0 00-.5-.4.7.7 0 00-.6.3.6.6 0 00-.2.5 4.3 4.3 0 01-1.3-.9 11.6 11.6 0 00-3.6-2.1 8.2 8.2 0 00-2.9-.2 4.6 4.6 0 00-2 1 2 2 0 000 3v.4a1.2 1.2 0 000 1.3l.4.4.2-.4a.5.5 0 01.3-.4l1.2.3a8.4 8.4 0 004.3 0 4.7 4.7 0 012.2 0 1 1 0 01.6.8 1 1 0 01-.2.9c-.3.2-.4.3-1.3.6a6 6 0 01-2.1.1 9.6 9.6 0 00-2.2.1 9.5 9.5 0 01-2.4.1h-1.7l-.4-.4a1.2 1.2 0 01-.2-.6V21l.2.1a.2.2 0 00.3 0l-.1-.7a1.3 1.3 0 01-.1-.4.2.2 0 00.1 0l.2-1.4c0-1.3 0-1.6-.4-2v-.1l.1-.2a2 2 0 00.6-1l.1-.8-.6.6a.5.5 0 01-.5.2.4.4 0 01-.4-.2 2.4 2.4 0 00-1-.6.3.3 0 00-.3 0 .2.2 0 00-.1.2 1.4 1.4 0 01-.2.3v.1l-.2-.1a1.8 1.8 0 00-.7-.5h-.6l-.1.4v.3l-.4-.1a1.4 1.4 0 00-1.2-.3H41l.2.4-.1.3a1 1 0 01-.9.4 2 2 0 00-.7.1 2.3 2.3 0 01-.6.1l-.4.1a.7.7 0 00-.2-.6.8.8 0 00-.6-.3.8.8 0 00-.7.4 1.1 1.1 0 000 1v.4a3 3 0 00.7.8l.5.6.4.4.6.3v-.5s0 .2.2.2c0 0 .2.2.3 0a.2.2 0 00.1-.1.7.7 0 010-.1l.6.7.1.2a7.3 7.3 0 01-2.5-.7c-.6-.3-.8-.4-1-.2a.3.3 0 000 .3 1 1 0 00.3.5.7.7 0 00-.2.4l-.2.6-.2.6h.7a4.8 4.8 0 00.6-.1l-.4.6.6-.2a2.5 2.5 0 00.5-.1h.1v.1c.1.1.3.4.5.3.2 0 .2-.1.3-.3v.1c.2.4.4.6.6.6l.2-.3a.5.5 0 01.1-.2.3.3 0 01.2 0h.1c0 .2 0 .4-.7.9a5 5 0 00-2.6 3.6 3.4 3.4 0 000 1.2l-.9-1-1.2-1a1 1 0 00.6-1 .8.8 0 00-.6-.7 1 1 0 00-.4 0v-2.5a30.1 30.1 0 01.9-8.4c-.1-.1-.3 0-.6.2a4.3 4.3 0 00-1.4 1.5c-.7 1.4-1 3.2-1 7a23.2 23.2 0 000 2.3 1 1 0 00-.3 0 .8.8 0 00-.7.7 1 1 0 00.7 1l.4.1a.3.3 0 000 .3.3.3 0 000 .1.3.3 0 00-.2.1v.5a.5.5 0 00.2.2.4.4 0 000 .4l.1.2a.4.4 0 000 .2.4.4 0 00.3.5.5.5 0 000 .2h-.2a.5.5 0 00-.4 0 .4.4 0 000 .6.8.8 0 00.5.1.7.7 0 01-.1.2l-.3.4.2.3a.8.8 0 010 .9.5.5 0 00-.5-.2.4.4 0 00-.3.3c0 .3 0 .4.3.6a1 1 0 00.5.3.6.6 0 01-.1 0l-.5.5.7.1h.2c0 .2.3.6.5.6s.2-.1.3-.2a.8.8 0 00.1-.4h.2l.8-.1-.6-.4v-.1a1.1 1.1 0 00.7-.6.5.5 0 000-.4.5.5 0 00-.5-.2.4.4 0 00-.2.3h-.1a.8.8 0 010-1c.2-.3.2-.4 0-.6a.8.8 0 01-.2-.4.5.5 0 00.6 0 .4.4 0 00.1-.4.5.5 0 00-.3-.3.5.5 0 00.2 0 .8.8 0 00.2 0c.2.2.2.2.2.8s0 .9.1 1l.3.2a.2.2 0 00.2-.3.3.3 0 01.2 0c.2 0 .4.3.6.5l1 .7h.2a1.4 1.4 0 00.4-.1 2.8 2.8 0 001-1 7.7 7.7 0 00.8.6l.7.3.3.8c.5 1.5.3 2-.2 2.3l-1 .1c-.6 0-.8 0-1 .3a2 2 0 00-.6 1 .3.3 0 00.2.3l.6-.2a.6.6 0 00.5.2 1 1 0 00.7-.2h.1a.8.8 0 00.6.2 1 1 0 00.6-.2l.6.1c.5 0 .5 0 .8-.3a.8.8 0 00.2-.7l-.1-.6a1 1 0 010-.2l.3-.1a5.9 5.9 0 00.6-.3c.2 0 .8-.6.8-.8 0-.3-.2-.3-.6-.3-.4 0-.6-.1-.6-.3-.1-.1 0-.5.3-1l.4-.7h.3l1.6-.7a8 8 0 013.6-1v.3a3.2 3.2 0 001 1.9 2.6 2.6 0 01.7 2.2v1l-.2.2-.8.2c-.6 0-.8 0-1 .2a1.1 1.1 0 00-.4.7.3.3 0 000 .4.3.3 0 00.2 0 1.3 1.3 0 00.5-.2H50.3a.7.7 0 001 0 .6.6 0 00.6.3c.2 0 .4 0 .5-.3l.2.1.6.2a.6.6 0 00.3 0c.2 0 .4 0 .7-.2h.2a.6.6 0 00.4.2.8.8 0 00.6-.2l.1-.1h.1a.9.9 0 00.8.2.6.6 0 00.4-.2c.2.2.6.3 1 .2a.3.3 0 00.2-.2.7.7 0 00-.1-.5 2 2 0 01-.5-1c0-.3 0-.5.5-.8.5-.4.7-.8.6-1a.4.4 0 00-.4-.3c-.2 0-.4-.2-.5-.5-.4-.8-.3-1.6.2-3.1a6.6 6.6 0 00.6-2.9 3 3 0 00-.2-1.5 5.3 5.3 0 00-.5-1l-.2-.3.2-.2a2.1 2.1 0 00.9-2 2.1 2.1 0 00-1.4-1.6 2.6 2.6 0 00-1.4-.2 11.6 11.6 0 00-1.6.1 10.9 10.9 0 01-1.6.2c-.7 0-.8 0-1-.2-.3-.1-.4-.1-.4-.5a.4.4 0 00-.3-.3c-.2 0-.6.3-.7.6a1.6 1.6 0 01-.2-.4c0-.2 0-.4.4-.6l.6-.3-.5-.3a1.1 1.1 0 00-.8 0 1.2 1.2 0 00-.8.4h-.2a.7.7 0 01-.2-.8.8.8 0 01.5-.5.6.6 0 01.5 0 .2.2 0 010 .1c.2.3.4.3.4.3.3 0 .4-.6.4-1 .4 0 .7.3 1 .6a1.1 1.1 0 010 1l-.4.7.6-.1a1.6 1.6 0 001-.6 1.5 1.5 0 000-1.3c.3 0 .5.3.7.5v.6a1.8 1.8 0 01-.2.4c-.1.2-.2.3-.1.4a.2.2 0 00.2.1 1.6 1.6 0 00.9-.4l.2-.4c.3.3.6.6 1 .7.4.2.6.2.7 0l-.2-.2a2 2 0 01-.2-.6l1 .8a2.4 2.4 0 001.7.8 1.1 1.1 0 001-.5 1 1 0 00.3-1.1zM34.4 28a.7.7 0 00.3 0 1 1 0 00-.2 0h-.1zm20.9 6a2.2 2.2 0 00-1.2.6 2.5 2.5 0 00-.2-.5c-.1-.4 0-.7.5-1.3 0-.1.5-.6.5-.8a.3.3 0 00-.1-.2l-.5-.1c-.2 0-.3 0-.4-.2s-.3-.3 0-.7l.2-.3.2.2c1.6 1 1.6 1 1.7 2 0 1.1 0 1.2-.8 1.3z" fill="#FFCE54"/></g></svg>