<svg width="71" height="48" xmlns="http://www.w3.org/2000/svg"><g fill="none"><path d="M7 47.6h57.8a6.6 6.6 0 005.4-3.6H1.6A6.6 6.6 0 007 47.6z" fill="#ED5565"/><path d="M1 40.4v1.3a6.6 6.6 0 00.6 2.3H70a6.6 6.6 0 00.7-2.3v-1.3H1z" fill="#FFF"/><path fill="#ED5565" d="M1 36.8h69.8v3.6H1z"/><path fill="#FFF" d="M1 33.2h69.8v3.6H1z"/><path fill="#ED5565" d="M1 29.6h69.8v3.6H1z"/><path fill="#FFF" d="M1 26h69.8v3.6H1z"/><path fill="#ED5565" d="M1 22.3h69.8V26H1z"/><path fill="#FFF" d="M1 18.7h69.8v3.6H1z"/><path fill="#ED5565" d="M1 15.1h69.8v3.6H1z"/><path fill="#FFF" d="M1 11.5h69.8V15H1z"/><path fill="#ED5565" d="M1 7.9h69.8v3.6H1z"/><path d="M70.8 7.9V6.5a6.6 6.6 0 00-.6-2.2H1.5a6.6 6.6 0 00-.7 2.2V8h70z" fill="#FFF"/><path d="M64.8.7H7a6.6 6.6 0 00-5.4 3.6h68.6A6.6 6.6 0 0064.8.7z" fill="#ED5565"/><path d="M34 26V.6H7a6.6 6.6 0 00-6 5.8V26h33z" fill="#4A89DC"/><path fill="#FFF" d="M5 3.7l-.3.9H4l.7.5-.3.8.7-.5.7.5-.2-.8.7-.5h-1zM5 8l-.3.8H4l.7.5-.3.8.7-.5.7.6-.2-.9.7-.5h-1zm0 4.2l-.3.8H4l.7.6-.3.8.7-.5.7.5-.2-.8.7-.6h-1zm0 4.3l-.3.8H4l.7.5-.3.8.7-.5.7.5-.2-.8.7-.5h-1zm.3 5l-.3-.8-.3.8H4l.7.5-.3.9.7-.5.7.5-.2-.9.7-.5zM7.5 5.8l-.3.9h-.8l.7.5-.3.8.7-.5.7.5-.2-.8.7-.5h-1zm0 4.3l-.3.8h-.8l.7.5-.3.9.7-.5.7.5-.2-.9.7-.5h-1zm0 4.2l-.3.9h-.8l.7.5-.3.8.7-.5.7.5-.2-.8.7-.5h-1zm.3 5.1l-.3-.8-.3.8h-.8l.7.5-.3.9.7-.6.7.6-.2-.9.7-.5zM10 3.7l-.3.9H9l.7.5-.3.8.7-.5.7.5-.2-.8.7-.5h-1zM10 8l-.3.8H9l.7.5-.3.8.7-.5.7.6-.2-.9.7-.5h-1zm0 4.2l-.3.8H9l.7.6-.3.8.7-.5.7.5-.2-.8.7-.6h-1zm0 4.3l-.3.8H9l.7.5-.3.8.7-.5.7.5-.2-.8.7-.5h-1zm.3 5l-.3-.8-.3.8H9l.7.5-.3.9.7-.5.7.5-.2-.9.7-.5zm2.2-15.7l-.3.9h-.8l.7.5-.3.8.7-.5.7.5-.2-.8.7-.5h-1zm0 4.3l-.3.8h-.8l.7.5-.3.9.7-.5.7.5-.2-.9.7-.5h-1zm0 4.2l-.3.9h-.8l.7.5-.3.8.7-.5.7.5-.2-.8.7-.5h-1zm.3 5.1l-.3-.8-.3.8h-.8l.7.5-.3.9.7-.6.7.6-.2-.9.7-.5zM15 3.7l-.3.9H14l.7.5-.3.8.7-.5.7.5-.3-.8.8-.5h-1zM15 8l-.3.8H14l.7.5-.3.8.7-.5.7.6-.3-.9.8-.5h-1zm0 4.2l-.3.8H14l.7.6-.3.8.7-.5.7.5-.3-.8.8-.6h-1zm0 4.3l-.3.8H14l.7.5-.3.8.7-.5.7.5-.3-.8.8-.5h-1zm.3 5l-.3-.8-.3.8H14l.7.5-.3.9.7-.5.7.5-.3-.9.8-.5zm2.2-15.7l-.3.9h-.9l.7.5-.2.8.7-.5.7.5-.3-.8.8-.5h-1zm0 4.3l-.3.8h-.9l.7.5-.2.9.7-.5.7.5-.3-.9.8-.5h-1zm0 4.2l-.3.9h-.9l.7.5-.2.8.7-.5.7.5-.3-.8.8-.5h-1zm.3 5.1l-.3-.8-.3.8h-.9l.7.5-.2.9.7-.6.7.6-.3-.9.8-.5zM20 3.7l-.3.9h-.9l.7.5-.2.8.7-.5.7.5-.3-.8.7-.5h-.8zM20 8l-.3.8h-.9l.7.5-.2.8.7-.5.7.6-.3-.9.7-.5h-.8zm0 4.2l-.3.8h-.9l.7.6-.2.8.7-.5.7.5-.3-.8.7-.6h-.8zm0 4.3l-.3.8h-.9l.7.5-.2.8.7-.5.7.5-.3-.8.7-.5h-.8zm.3 5l-.3-.8-.3.8h-.9l.8.5-.3.9.7-.5.7.5-.3-.9.7-.5zm2.2-15.7l-.3.9h-.9l.7.5-.2.8.7-.5.7.5-.3-.8.7-.5h-.8zm0 4.3l-.3.8h-.9l.7.5-.2.9.7-.5.7.5-.3-.9.7-.5h-.8zm0 4.2l-.3.9h-.9l.7.5-.2.8.7-.5.7.5-.3-.8.7-.5h-.8zm.3 5.1l-.3-.8-.3.8h-.9l.7.5-.2.9.7-.6.7.6-.3-.9.7-.5zM25 3.7l-.3.9h-.9l.7.5-.2.8.7-.5.7.5-.3-.8.7-.5h-.8zM25 8l-.3.8h-.9l.7.5-.2.8.7-.5.7.6-.3-.9.7-.5h-.8zm0 4.2l-.3.8h-.9l.7.6-.2.8.7-.5.7.5-.3-.8.7-.6h-.8zm0 4.3l-.3.8h-.9l.7.5-.2.8.7-.5.7.5-.3-.8.7-.5h-.8zm.3 5l-.3-.8-.3.8h-.9l.7.5-.2.9.7-.5.7.5-.3-.9.7-.5zm2.2-15.7l-.3.9h-.9l.7.5-.2.8.7-.5.7.5-.3-.8.7-.5h-.9zm0 4.3l-.3.8h-.9l.7.5-.2.9.7-.5.7.5-.3-.9.7-.5h-.9zm0 4.2l-.3.9h-.9l.7.5-.2.8.7-.5.7.5-.3-.8.7-.5h-.9zm.3 5.1l-.3-.8-.3.8h-.9l.7.5-.2.9.7-.6.7.6-.3-.9.7-.5zm1.7-14.3l-.2.8.7-.5.7.5-.3-.8.7-.5h-.9l-.2-.9-.3.9h-.9zM30 8l-.3.8h-.9l.7.5-.2.8.7-.5.7.6-.3-.9.7-.5h-.9zm0 4.2l-.3.8h-.9l.7.6-.2.8.7-.5.7.5-.3-.8.7-.6h-.9zm0 4.3l-.3.8h-.9l.7.5-.2.8.7-.5.7.5-.3-.8.7-.5h-.9zm.2 5l-.2-.8-.3.8h-.9l.7.5-.2.9.7-.5.7.5-.3-.9.7-.5z"/></g></svg>