<svg width="71" height="48" xmlns="http://www.w3.org/2000/svg"><g fill="none"><path d="M64.3.3H6A6.6 6.6 0 00.2 6v35.7a6.6 6.6 0 006.6 5.7h56.7a6.6 6.6 0 006.6-6.7V7A6.6 6.6 0 0064.3.3z" fill="#4658A9"/><path d="M25.1.3H6.7A6.6 6.6 0 00.1 6.9v17.4h25V.3z" fill="#4658A9"/><path d="M10.7 17.7v6.6h3.9v-6.8l6.7 6.7H25v-3l-7-7h7v-4h-7l7-7v-3h-3.8L14.6 7V.2h-4v6.6L4.7.7A6.7 6.7 0 00.8 3.8l6.4 6.4H.1v4h7.2L.1 21.4v2.8h4l6.6-6.5z" fill="#FFF"/><path d="M11.7 15v9.3h1.9v-9.5l9.4 9.4h2V23l-9.7-9.8h9.8v-2h-9.8l9.8-9.7V.3H23l-9.4 9.4V.3h-2v9.3L3.3 1.3a6.7 6.7 0 00-1.7 1.5l8.4 8.5H.2v2h10L0 23.1v1h2.2l9.4-9.2z" fill="#EC5463"/><path d="M41.8 13.2c-.3.2-.5 0-.4-.3l.4-1.4a1.3 1.3 0 00-.4-1.2l-1-1c-.3-.2-.2-.4.2-.4H42a1 1 0 001-.7l.4-1.6c.1-.4.3-.4.4 0l.6 1.5a1.1 1.1 0 001 .7h1.5c.4 0 .5.2.2.5l-1.2 1a1.2 1.2 0 00-.3 1.2l.3 1.2c.1.4 0 .5-.4.3l-1.2-.7a1.2 1.2 0 00-1.2 0l-1.3.9zm12 4c-.3.2-.5 0-.4-.3l.4-1.4a1.3 1.3 0 00-.4-1.2l-1-1c-.3-.2-.2-.4.2-.4H54a1 1 0 001-.7l.4-1.6c.1-.4.3-.4.4 0l.6 1.5a1.1 1.1 0 001 .7h1.5c.4 0 .5.2.2.5l-1.2 1a1.2 1.2 0 00-.3 1.2l.3 1.2c.1.4 0 .5-.4.3l-1.2-.7a1.2 1.2 0 00-1.2 0l-1.3.9zm-18 7c-.3.2-.5 0-.4-.3l.4-1.4a1.3 1.3 0 00-.4-1.2l-1-1c-.3-.2-.2-.4.2-.4H36a1 1 0 001-.7l.4-1.6c.1-.4.3-.4.4 0l.6 1.5a1.1 1.1 0 001 .7h1.5c.4 0 .5.2.2.5l-1.2 1a1.2 1.2 0 00-.3 1.2l.3 1.2c.1.4 0 .5-.4.3l-1.2-.7a1.2 1.2 0 00-1.2 0l-1.3.9zm-24.5 16c-.4.2-.7 0-.5-.4l.4-1.9a1.7 1.7 0 00-.5-1.5l-1.3-1.1c-.4-.4-.3-.6.2-.7h1.9a1.4 1.4 0 001.2-1l.6-2c0-.4.3-.4.5 0l.7 2a1.4 1.4 0 001.3 1h1.9c.5 0 .6.2.2.6l-1.4 1.2A1.6 1.6 0 0016 38l.5 1.6c.1.5-.1.6-.6.4l-1.5-1a1.5 1.5 0 00-1.5 0L11.3 40zm39-11c-.2.2-.3 0-.3-.2l.3-1a1 1 0 00-.3-.8l-.7-.7c-.2-.2-.2-.3 0-.3h1a.8.8 0 00.7-.5l.4-1.2c0-.2.2-.2.3 0l.4 1.1a.8.8 0 00.7.5h1c.3 0 .4.2.2.4l-.8.7a.9.9 0 00-.2.8l.3.9c0 .3 0 .4-.3.2l-.9-.5a.8.8 0 00-.8 0l-1 .6z" fill="#FFF"/></g></svg>