<svg width="71" height="48" xmlns="http://www.w3.org/2000/svg"><g fill="none"><path d="M3.9 47l.5-.1 66.5-30.6v-9A6.4 6.4 0 0064.5 1H46.6L2.3 45.6A6.4 6.4 0 003.9 47z" fill="#ED5565"/><path d="M7.2 1A6.4 6.4 0 001 7.4v34.2c0 1 .2 1.8.6 2.7L24 1H7.3z" fill="#4758A9"/><path d="M25.1 1h-1L1.5 44.3a6.4 6.4 0 00.9 1.3L46.6 1H25.1z" fill="#FFCE54"/><path fill="#FFF" d="M70.9 30.9V16.3L4.4 46.9z"/><path d="M4.4 46.9L4 47a6.3 6.3 0 003.2.9h57.3a6.4 6.4 0 006.4-6.4V30.9l-66.5 16z" fill="#57A863"/></g></svg>