<svg width="71" height="48" xmlns="http://www.w3.org/2000/svg"><g fill="none"><path d="M30.6.7h-3.2V15L2.4 2.5a6.6 6.6 0 00-2 4.2l19.2 9.6h-7l-12.2-6V12l8.7 4.4H.4v3h30.2V.8zm37.6 45.2a6.6 6.6 0 002.2-4.2L50.9 32h7l12.5 6.2v-1.7l-9-4.5h9v-3.1H40v18.8h3.1V33.3L68.2 46zM43.1.7H40v18.8h30.4v-3.2h-9l9-4.4V6.6L51 16.3h-7L69.4 3.6a6.7 6.7 0 00-1-1.2L43 15V.7zM.4 28.9V32H9L.4 36.4v5.2L19.6 32h7L1.4 44.6a6.7 6.7 0 001 1.2l25-12.5v14.4h3.1V28.8H.4z" fill="#FFF"/><path fill="#EC5565" d="M70.4 28.9v-9.4H40V.7h-9.4v18.8H.4v9.4h30.2v18.8H40V28.8z"/><path d="M19.6 16.3L.4 6.7v3.5l12.2 6.1h7zm31.3 0l19.5-9.7a6.6 6.6 0 00-1.1-3L43.9 16.3h7zM51 32l19.5 9.7a6.7 6.7 0 000-.7v-2.8L57.8 32h-7zm-31.3 0L.4 41.6a6.6 6.6 0 001 3L26.6 32h-7z" fill="#EC5565"/><path d="M43.1 15L68.3 2.4A6.6 6.6 0 0064.4.7H43.1V15zm27.3 21.5V32h-9zm0-20.2V12l-9 4.4zm-68 29.5A6.6 6.6 0 007 47.7h20.4V33.3l-25 12.5zm40.7-12.5v14.4h20.6a6.6 6.6 0 004.5-1.8L43.1 33.3zM27.4.7h-21a6.6 6.6 0 00-4 1.8l25 12.5V.7zM.4 32v4.3L9 32zm0-20v4.3H9z" fill="#4658A9"/></g></svg>