<svg width="71" height="48" xmlns="http://www.w3.org/2000/svg"><g fill="none"><rect fill="#039188" x=".1" y=".6" width="70" height="47" rx="6.4"/><path fill="#FFF" d="M0 26.1h70.2v4.2H.1z"/><path fill="#434A54" d="M0 22h70.2V26H.1z"/><path fill="#F6BB42" d="M0 17.8h70.2V22H.1z"/><path fill="#FFF" d="M37.4.6h4.2v47h-4.2z"/><path fill="#434A54" d="M33.2.6h4.2v47h-4.2z"/><path fill="#F6BB42" d="M29 .6h4.3v47H29z"/><circle fill="#ED5565" cx="35.1" cy="24.1" r="12.9"/><path d="M44.8 20.5h.8a.1.1 0 010 .2l-.6.5a.1.1 0 000 .1l.3.8a.1.1 0 01-.2.1l-.7-.4a.1.1 0 00-.1 0l-.7.5a.1.1 0 01-.2-.1l.2-.8a.1.1 0 000-.2l-.6-.5a.1.1 0 010-.2h.9a.1.1 0 00.1-.1l.3-.7a.1.1 0 01.2 0l.3.7a.1.1 0 000 .1zm-19.3 7h-.8a.1.1 0 010-.1l.5-.5a.1.1 0 000-.1L25 26a.1.1 0 01.2-.1l.7.4a.1.1 0 00.1 0l.7-.5a.1.1 0 01.2.1l-.3.8a.1.1 0 000 .2l.7.5a.1.1 0 010 .2h-1a.1.1 0 000 .1l-.3.7a.1.1 0 01-.2 0l-.3-.7a.1.1 0 000-.1zM45 27l.6.4a.1.1 0 010 .3h-.8a.1.1 0 00-.1 0l-.3.8a.1.1 0 01-.2 0l-.3-.7a.1.1 0 00-.1-.1h-.9a.1.1 0 010-.3l.6-.5-.2-.9a.1.1 0 01.2-.1l.7.5a.1.1 0 00.1 0l.7-.5a.1.1 0 01.2.2l-.3.7a.1.1 0 00.1.2zm-19.8-5.7l-.6-.4a.1.1 0 01.1-.3h.8l.3-.8a.1.1 0 01.3 0l.2.7a.1.1 0 00.2.1h.8a.1.1 0 01.1.3l-.7.4a.1.1 0 000 .2l.3.8a.1.1 0 01-.2.1l-.7-.5a.1.1 0 00-.2 0l-.6.5a.1.1 0 01-.2-.2l.2-.7a.1.1 0 000-.2zm16.3 11l.2.7a.1.1 0 01-.2.1l-.6-.4a.1.1 0 00-.1 0l-.7.5a.1.1 0 01-.2-.2l.2-.7a.1.1 0 000-.2l-.7-.5a.1.1 0 010-.2h.9a.1.1 0 00.1-.1l.3-.8a.1.1 0 01.2 0l.3.8a.1.1 0 00.1 0h.8a.1.1 0 010 .3l-.6.5a.1.1 0 000 .1zM28.8 16l-.2-.8a.1.1 0 01.2 0l.6.4a.1.1 0 00.1 0l.7-.5a.1.1 0 01.2.1l-.3.8a.1.1 0 000 .1l.8.5a.1.1 0 010 .3H30a.1.1 0 00-.1 0l-.3.8a.1.1 0 01-.2 0L29 17a.1.1 0 00-.1 0h-.8a.1.1 0 010-.3l.6-.4a.1.1 0 000-.2zm12-.5l.7-.4a.1.1 0 01.2.1l-.2.7a.1.1 0 000 .2l.6.4a.1.1 0 010 .3h-.8a.1.1 0 00-.1 0l-.3.9a.1.1 0 01-.2 0l-.3-.8a.1.1 0 00-.1 0h-.9a.1.1 0 010-.3l.7-.5a.1.1 0 000-.2l-.3-.7a.1.1 0 01.2-.1l.7.4a.1.1 0 00.2 0zm-11.4 17l-.6.5a.1.1 0 01-.2-.1l.2-.7a.1.1 0 000-.2l-.6-.4a.1.1 0 010-.3h.8a.1.1 0 00.1 0l.3-.9a.1.1 0 01.2 0l.3.8a.1.1 0 00.1 0h.9a.1.1 0 010 .3l-.7.5a.1.1 0 000 .2l.3.7a.1.1 0 01-.2.1l-.7-.4a.1.1 0 00-.2 0zm5.4-18.7l.2-.8a.1.1 0 01.2 0l.3.7a.1.1 0 000 .1h.9a.1.1 0 010 .2l-.6.5a.1.1 0 000 .2l.3.8a.1.1 0 01-.2.1l-.7-.5a.1.1 0 00-.1 0l-.7.5a.1.1 0 01-.2-.1l.3-.8a.1.1 0 000-.2l-.6-.4a.1.1 0 010-.3h.8zm.7 20.5l-.2.8a.1.1 0 01-.3 0l-.2-.8a.1.1 0 00-.1 0h-.8a.1.1 0 01-.1-.3l.6-.5a.1.1 0 000-.1l-.2-.8a.1.1 0 01.2-.2l.6.5a.1.1 0 00.2 0l.7-.4a.1.1 0 01.2.1l-.3.8a.1.1 0 000 .1l.6.5a.1.1 0 010 .2h-.8a.1.1 0 000 .1zm3.4-5a2.9 2.9 0 000-1 2.6 2.6 0 00-.1-1 6.1 6.1 0 00-.6-3.7 9.9 9.9 0 00-1.2-2h.1a1 1 0 001.2-.3v-.1a1.5 1.5 0 01-.4-.2V21a1.1 1.1 0 00.3-.2v-.1a1.5 1.5 0 01-.5-.2v-.1a1.2 1.2 0 00.3-.2v-.2a2 2 0 01-.6-.2v-.2l.2-.1v-.1a1.6 1.6 0 01-.5-.3h.3v-.2c-.7-.4-1.4-1.2-1.9-1.5a1.9 1.9 0 00-1.9.1 1 1 0 00-.3.7H33c-.4.1-.7.5-.4 1.3h.2a1.5 1.5 0 010-.2h.1a.6.6 0 00.5 0 .8.8 0 00.2 0h.1a.4.4 0 000 .2.4.4 0 00-.2.3.4.4 0 00-.2.3 6.3 6.3 0 00-.6 3.5 5.2 5.2 0 001.4 3.2l.1.3v.4c0 .5.3.8.5.8 0 .2 0 .4.2.6a1.2 1.2 0 00-.4.4h-1.3c-.2 0-.1-.2-.2-.5a.8.8 0 00-1-.1c-.3.1 0 .5-.6.5v.1c0 .3.2.6.4.8h2.6a1 1 0 001 .5h.1a.5.5 0 00.4 0 .5.5 0 00.5 0 .7.7 0 00.3 0c.2.2.3.4.5.4 0 .4.2.6.3.6.2 0 .3-.3.3-.6.3 0 .4-.4.5-1h.2a.6.6 0 000-.8v-.4h.1l.2.3a.1.1 0 100 .3z" fill="#039188"/></g></svg>