<svg xmlns="http://www.w3.org/2000/svg">
  <symbol id="menu-open-icon" viewBox="0 0 25 11">
    <path d="M1.5 3h22c.8 0 1.5-.7 1.5-1.5S24.3 0 23.5 0h-22C.7 0 0 .7 0 1.5S.7 3 1.5 3zM23.5 8h-22C.7 8 0 8.7 0 9.5S.7 11 1.5 11h22c.8 0 1.5-.7 1.5-1.5S24.3 8 23.5 8z"/>
  </symbol>

  <symbol id="contacts-phone" viewBox="0 0 36 36">
    <path d="M18 0C11.6 0 5.2 1.1 2.8 3.4.9 5.3.2 8.7 0 10.8v.3c0 .8.7 1.5 1.5 1.5.1 0 3.7-.3 5.9-.5h.2c.8 0 1.5-.7 1.5-1.5v-3C9 6.7 9.7 6 10.7 6h14.7c.8 0 1.6.7 1.6 1.7v3c0 .8.7 1.5 1.5 1.5h.2c2.2.2 5.8.5 5.9.5.8 0 1.5-.7 1.5-1.5v-.3c-.2-2.1-.9-5.5-2.8-7.4C30.8 1.1 24.4 0 18 0zm0 19.5c-1.7 0-3 1.3-3 3s1.3 3 3 3 3-1.3 3-3-1.3-3-3-3zm-2.3-6.8v-1.9c0-1-.8-1.9-1.9-1.9s-1.8.9-1.8 2v1.9L1.9 23.6c-.7.7-1.1 1.6-1.1 2.7v3c0 1.7 1.3 3 3 3h.8v1.9c0 1 .8 1.9 1.9 1.9s1.9-.8 1.9-1.9v-1.9h19.5v1.9a1.9 1.9 0 103.8 0v-1.9h.8c1.7 0 3-1.3 3-3v-3c0-1.1-.4-2-1.1-2.7L24 12.7v-1.9c0-1-.8-1.9-1.9-1.9s-1.9.8-1.9 1.9v1.9h-4.5zm2.3 3.8c3.3 0 6 2.7 6 6s-2.7 6-6 6-6-2.7-6-6 2.7-6 6-6z"/>
  </symbol>

  <symbol id="contacts-phone-mini" viewBox="0 0 18 18">
    <path d="M12.6 18h-.8c-3.6-.4-6.2-2.1-8.1-4.3C1.8 11.6.3 8.8 0 5V4c.1-.7.4-1.1.8-1.5C1.2 2 2 1.4 2.6 1.3c.5 0 1.3.3 1.6.8.3.4.4 1.2.6 1.8.1.6.4 1.4.4 2-.2.9-1.3 1.3-1.7 1.9 1.1 2.8 3 4.8 5.4 6.2.6-.3 1.2-1.4 2-1.4.3 0 .7.2 1 .3.3.1.6.2 1 .4.5.2 1.4.5 1.7.9.3.4.5 1.2.4 1.7-.1.8-1.6 1.8-2.4 2.1z"/>
    <path d="M9.1 1.1c4.3 0 7.8 3.6 7.8 8H18c0-5-4-9.1-8.9-9.1v1.1zM9.1 6.9V8c.6 0 1 .5 1 1.1h1.1c0-1.2-.9-2.2-2.1-2.2z"/>
    <path d="M9.1 4.6c2.4 0 4.4 2 4.4 4.5h1.2c0-3.1-2.5-5.7-5.5-5.7v1.2h-.1z"/>
  </symbol>

  <symbol id="contacts-email" viewBox="0 0 36 26">
    <path d="M0 23a3 3 0 003 3h30c1.7 0 3-1.3 3-3V3a3 3 0 00-3-3H3C1.3 0 0 1.3 0 3v20zm11-10L4.2 6.2c-.6-.6-.6-1.5 0-2 .6-.6 1.5-.6 2.1 0l11 10.9c.4.4 1.2.4 1.6 0l11-10.9c.6-.6 1.5-.6 2.1 0 .6.6.6 1.5 0 2L25 13l6.9 6.8c.6.6.6 1.5 0 2-.6.6-1.5.6-2.1 0L22.9 15s-2.1 2.2-2.5 2.5c-.6.6-1.4 1-2.4 1-.9 0-1.8-.4-2.4-1L13.1 15l-6.9 6.8c-.6.6-1.5.6-2.1 0-.6-.6-.6-1.5 0-2L11 13z"/>
  </symbol>

  <symbol id="contacts-email-mini" viewBox="0 0 18 14">
    <path d="M14.9 1.8c1.2-1 .9-1.8-.7-1.8H3.7c-1.5 0-1.8.8-.6 1.8l3.7 3.1c1.2 1 3.2 1 4.4 0l3.7-3.1z"/>
    <path d="M11.9 7.1c-1.2 1-2.2 1.8-2.2 1.8-.1.1-.2.1-.3.1h-.1c-.1.1-.2.1-.3.1-.1 0-.2 0-.3-.1h-.1c-.1 0-.2 0-.3-.1 0 0-1-.8-2.2-1.8L2.2 3.8C1 2.8 0 3.3 0 4.8v6.3C0 12.7 1.3 14 2.8 14h12.3c1.6 0 2.8-1.3 2.8-2.8V4.8c0-1.6-1-2-2.2-1l-3.8 3.3z"/>
  </symbol>

  <symbol id="route-location" viewBox="0 0 28 43">
    <path d="M11.7 13.9c0-1.2 1-2.2 2.3-2.2s2.3 1 2.3 2.2c0 1.2-1 2.2-2.3 2.2-1.2 0-2.3-1-2.3-2.2zM14 8.1c-3.2 0-5.9 2.6-5.9 5.8s2.6 5.8 5.9 5.8c3.2 0 5.9-2.6 5.9-5.8 0-3.2-2.7-5.8-5.9-5.8zM0 13.6c0 9.1 10.9 16.2 11.7 26.7v.4c0 1.2 1 2.2 2.3 2.2s2.3-1 2.3-2.2v-.4C17.2 29.8 28 22.8 28 13.6 28 6.1 21.7 0 14 0S0 6.1 0 13.6zm14-9.1c5.2 0 9.5 4.2 9.5 9.4s-4.2 9.4-9.5 9.4-9.5-4.2-9.5-9.4S8.8 4.5 14 4.5z"/>
  </symbol>

  <symbol id="flag-bosnia" viewBox="0 0 71 48">
    <g fill="none">
      <rect fill="#4758A9" x=".9" y=".13" width="70" height="47" rx="6.36"/>
      <path fill="#F6D660" d="M13.9.13h37v47z"/><path d="M8.19 4.88c-.27-.08-.28-.24 0-.36l1-.44a.93.93 0 00.49-.73v-1c0-.28.17-.33.35-.12l.67.8c.2.22.52.3.8.2l1.08-.43c.26-.11.36 0 .2.24l-.62 1a.79.79 0 000 .84l.65.85c.17.22.08.36-.19.31l-1.06-.2a.88.88 0 00-.8.32l-.55.76c-.17.23-.33.19-.36-.09l-.11-1a.84.84 0 00-.55-.65l-1-.3zm4.32 5.5c-.27-.08-.28-.24 0-.36l1-.44a.92.92 0 00.49-.73v-1c0-.28.17-.33.35-.12l.67.8c.2.22.52.3.8.2l1.08-.43c.26-.1.35 0 .2.24l-.62 1a.79.79 0 000 .84l.65.85c.17.22.08.36-.19.31l-1.06-.2a.88.88 0 00-.8.32l-.55.76c-.17.23-.33.19-.36-.09l-.12-1a.84.84 0 00-.55-.65l-.99-.3zm4.33 5.5c-.27-.08-.28-.24 0-.36l1-.44a.92.92 0 00.49-.73v-1c0-.28.17-.33.35-.12l.67.81c.2.22.52.3.8.2l1.08-.43c.26-.11.35 0 .2.24l-.62 1a.79.79 0 000 .84l.65.85c.17.22.08.36-.19.31l-1.06-.2a.88.88 0 00-.8.32l-.55.76c-.16.23-.33.19-.36-.09l-.11-1a.84.84 0 00-.55-.65l-1-.31zm4.33 5.5c-.27-.08-.28-.24 0-.36l1-.44a.92.92 0 00.49-.73v-1c0-.28.17-.33.35-.12l.67.81c.2.22.52.3.8.2l1.08-.43c.26-.1.35 0 .2.24l-.62 1a.79.79 0 000 .84l.65.85c.17.22.08.36-.19.31l-1.06-.2a.88.88 0 00-.8.32l-.55.76c-.17.23-.33.19-.36-.09l-.12-1a.83.83 0 00-.55-.65l-.99-.31zm4.33 5.5c-.27-.08-.28-.24 0-.36l1-.44a.93.93 0 00.49-.73v-1c0-.28.17-.33.35-.12l.67.81c.2.22.52.3.8.2l1.08-.43c.26-.11.35 0 .2.24l-.62 1a.79.79 0 000 .84l.65.85c.17.22.08.36-.19.31l-1.06-.2a.88.88 0 00-.8.32l-.55.76c-.17.23-.33.19-.36-.09l-.12-1a.83.83 0 00-.55-.65l-.99-.31zm4.33 5.5c-.27-.08-.28-.24 0-.36l1-.44a.93.93 0 00.49-.73v-1c0-.28.17-.33.35-.12l.67.81c.2.22.52.3.8.2l1.08-.43c.26-.11.35 0 .2.24l-.62 1a.79.79 0 000 .84l.65.85c.17.22.08.36-.19.31l-1.06-.2a.88.88 0 00-.8.32l-.55.76c-.17.23-.33.19-.36-.09l-.12-1a.84.84 0 00-.55-.65l-.99-.31zm4.33 5.51c-.27-.08-.28-.24 0-.36l1-.44a.93.93 0 00.49-.73v-1c0-.28.17-.34.35-.12l.67.81c.2.22.52.3.8.2l1.08-.43c.26-.11.35 0 .2.24l-.62 1a.79.79 0 000 .84l.65.85c.17.22.08.36-.19.31l-1.06-.2a.88.88 0 00-.8.32l-.55.76c-.17.23-.33.19-.36-.09l-.12-1a.84.84 0 00-.55-.65l-.99-.31zm3.71 4.71c-.27-.08-.28-.24 0-.36l1-.44a.93.93 0 00.49-.73v-1c0-.28.17-.33.35-.12l.67.81c.2.22.52.3.8.2l1.08-.43c.26-.11.35 0 .21.24l-.62 1a.79.79 0 000 .84l.65.85c.17.22.09.36-.19.31l-1.06-.2a.88.88 0 00-.8.32l-.55.76c-.16.23-.33.19-.36-.09l-.12-1a.84.84 0 00-.55-.65l-1-.31z" fill="#FFF"/>
    </g>
  </symbol>

  <symbol id="flag-czech" viewBox="0 0 71 48">
    <g fill="none">
      <path d="M64 .6H6.5A6.4 6.4 0 00.3 6.8v17.6h70V7A6.4 6.4 0 0063.9.5z" fill="#F5F7FA"/>
      <path d="M.3 41.2a6.4 6.4 0 006.3 6.3H64a6.4 6.4 0 006.4-6.3V24.5H.3v16.7z" fill="#ED5565"/>
      <path d="M2.2 2.4a6.3 6.3 0 00-2 4.5v34.3a6.3 6.3 0 002 4.6l23-21.2-23-22.2z" fill="#4758A9"/>
    </g>
  </symbol>

  <symbol id="transport-plane" viewBox="0 0 19 21">
    <path d="M18.9 18.9L15.2 8.8c-.1-.5.1-.7.3-1.1 0 0 2.1-3.5 2.8-4.6.7-1.2.6-2.3-.1-2.8s-1.7-.1-2.5 1-3 4.5-3 4.5c-.3.4-.4.7-.9.8-.1-.1-10.3.4-10.6.4-.3 0-.7.1-1 .6-.4.7-.2.9.2 1l8.3 2.7c.3 0 .3.2.2.6-.2.4-1.4 2.3-1.6 2.6-.1.2-.2.2-.4.3l-2.8 1c-.1 0-.3.1-.4.3l-.4.6c-.2.3-.1.5.2.5.3.1 2.1.2 2.1.2s.3.1.4.1c.2.1.4.3.2.6-.3.6-.4 1.2-.2 1.3s.6-.2 1-.7c.2-.3.4-.2.6 0 .2-.1.4.1.4.1s.8 1.6 1 1.9c.2.3.4.3.6 0l.4-.6c.1-.1.1-.3.1-.5l-.3-3.1c0-.2 0-.2.1-.5.1-.2 1.4-2.2 1.6-2.5.2-.3.4-.3.6-.1.2.2 5.7 6.7 5.7 6.7.3.3.5.4.9-.2.4-.4.3-.8.2-1z"/>
  </symbol>

  <symbol id="transport-bus" viewBox="0 0 17 21">
    <path d="M16.2 3.1c-.2-1.2-1-1.6-2.1-2.1-1.1-.4-3.7-1-5.6-1C6.6 0 4 .6 2.9 1c-1.1.5-1.8.9-2.1 2.1L0 9.5v8.8h1.4v1.4c0 1.7 2.5 1.7 2.5 0v-1.4h9.2v1.4c0 1.7 2.5 1.7 2.5 0v-1.4H17V9.5l-.8-6.4zM5 1.6h7c.7 0 .7 1 0 1H5c-.7.1-.7-1 0-1zm-2.3 14c-.6 0-1.2-.5-1.2-1.2s.5-1.2 1.2-1.2c.6 0 1.2.5 1.2 1.2-.1.6-.6 1.2-1.2 1.2zm5.7-5.4H2.2c-.6 0-.7-.4-.7-.9l.6-4.7c.1-.6.3-.9 1-.9h10.7c.7 0 .9.4 1 .9l.6 4.7c.1.4-.1.9-.7.9H8.4zm5.9 5.4c-.6 0-1.2-.5-1.2-1.2s.5-1.2 1.2-1.2c.6 0 1.2.5 1.2 1.2 0 .6-.5 1.2-1.2 1.2z"/>
  </symbol>

  <symbol id="transport-bike" viewBox="0 0 24 21">
    <path d="M16 3.6c1 0 1.8-.8 1.8-1.8S17 0 16 0s-1.8.8-1.8 1.8.8 1.8 1.8 1.8zm3 7.4c-2.8 0-5 2.3-5 5s2.2 5 5 5 5-2.3 5-5-2.2-5-5-5zm0 8.6c-1.9 0-3.5-1.6-3.5-3.5s1.6-3.5 3.5-3.5 3.5 1.6 3.5 3.5-1.6 3.5-3.5 3.5zM14.8 8.9H19V7.1h-3.2l-1.9-3.3c-.3-.5-.8-.8-1.5-.8-.5 0-.9.2-1.2.5L7.5 7.2a1.76 1.76 0 00.3 2.7l3.3 2v5H13v-6.5l-2.2-1.7 2.3-2.4 1.7 2.6zM5 11c-2.8 0-5 2.3-5 5s2.2 5 5 5 5-2.3 5-5-2.2-5-5-5zm0 8.6c-1.9 0-3.5-1.6-3.5-3.5s1.6-3.5 3.5-3.5 3.5 1.5 3.5 3.5-1.6 3.5-3.5 3.5z"/>
  </symbol>

  <symbol id="transport-walk" viewBox="0 0 20 21">
    <ellipse cx="14.3" cy="2" rx="2.1" ry="2"/>
    <path d="M19.4 4.6c-.5-.2-1.2-.1-1.4.4l-.9 1.6L13 4.3c-.2-.1-.3-.1-.6-.1H7.9c-.4 0-.7.1-.9.5L5.3 7.6c-.3.5-.1 1.1.4 1.3.2.1.4.1.5.1.4 0 .8-.2 1-.5l1.4-2.4h1.6l-4.7 8.1H1.1c-.6 0-1.1.4-1.1 1s.5 1 1.1 1h5c.4 0 .7-.2.9-.5l1.9-3.2 3 2.6-.2 4.9c-.1.5.4 1 1 1h.1c.6 0 1-.4 1.1-.9l.3-5.4c0-.3-.1-.6-.3-.8l-2.6-2.2L14 7.1l3.1 1.8c0 .1.4.2.6.1.3-.1.5-.2.7-.5L19.9 6c.3-.5.1-1.1-.5-1.4z"/>
  </symbol>
</svg>
